<svg width="20" height="20" viewBox="0 0 20 20" fill="none" xmlns="http://www.w3.org/2000/svg">
<path d="M9.15183 5.15834L6.0602 2.06665C6.00186 2.00832 5.92686 1.95833 5.84352 1.925C5.83519 1.925 5.82683 1.92499 5.8185 1.91666C5.75183 1.89166 5.67682 1.875 5.60182 1.875C5.43516 1.875 5.27685 1.94164 5.16018 2.05831L2.06016 5.15834C1.81849 5.4 1.81849 5.8 2.06016 6.04167C2.30182 6.28333 2.70187 6.28333 2.94354 6.04167L4.98516 3.99999V17.5C4.98516 17.8417 5.2685 18.125 5.61016 18.125C5.95183 18.125 6.23516 17.8417 6.23516 17.5V4.00833L8.2685 6.04167C8.3935 6.16667 8.55186 6.22498 8.71019 6.22498C8.86852 6.22498 9.02683 6.16667 9.15183 6.04167C9.3935 5.8 9.3935 5.40834 9.15183 5.15834Z" fill="#FFCA40"/>
</svg>
