<svg width="20" height="20" viewBox="0 0 20 20" fill="none" xmlns="http://www.w3.org/2000/svg">
<path d="M11.0591 14.8417L14.1507 17.9333C14.2091 17.9917 14.2841 18.0417 14.3674 18.075C14.3757 18.075 14.3841 18.075 14.3924 18.0833C14.4591 18.1083 14.5341 18.125 14.6091 18.125C14.7758 18.125 14.9341 18.0584 15.0508 17.9417L18.1508 14.8417C18.3924 14.6 18.3924 14.2 18.1508 13.9583C17.9091 13.7167 17.5091 13.7167 17.2674 13.9583L15.2258 16L15.2258 2.5C15.2258 2.15833 14.9424 1.875 14.6008 1.875C14.2591 1.875 13.9758 2.15833 13.9758 2.5L13.9758 15.9917L11.9424 13.9583C11.8174 13.8333 11.6591 13.775 11.5007 13.775C11.3424 13.775 11.1841 13.8333 11.0591 13.9583C10.8174 14.2 10.8174 14.5917 11.0591 14.8417Z" fill="#B3B3B3"/>
<path d="M9.15183 5.15834L6.0602 2.06665C6.00186 2.00832 5.92686 1.95833 5.84352 1.925C5.83519 1.925 5.82683 1.92499 5.8185 1.91666C5.75183 1.89166 5.67682 1.875 5.60182 1.875C5.43516 1.875 5.27685 1.94164 5.16018 2.05831L2.06016 5.15834C1.81849 5.4 1.81849 5.8 2.06016 6.04167C2.30182 6.28333 2.70187 6.28333 2.94354 6.04167L4.98516 3.99999V17.5C4.98516 17.8417 5.2685 18.125 5.61016 18.125C5.95183 18.125 6.23516 17.8417 6.23516 17.5V4.00833L8.2685 6.04167C8.3935 6.16667 8.55186 6.22498 8.71019 6.22498C8.86852 6.22498 9.02683 6.16667 9.15183 6.04167C9.3935 5.8 9.3935 5.40834 9.15183 5.15834Z" fill="#B3B3B3"/>
</svg>
